<svg xmlns="http://www.w3.org/2000/svg" xmlns:xlink="http://www.w3.org/1999/xlink" width="1920" zoomAndPan="magnify" viewBox="0 0 1440 809.999993" height="1080" preserveAspectRatio="xMidYMid meet" version="1.0"><defs><g/><clipPath id="bfd5af47d6"><rect x="0" width="1378" y="0" height="521"/></clipPath></defs><g transform="matrix(1, 0, 0, 1, 14, 145)"><g clip-path="url(#bfd5af47d6)"><g fill="#1a1a2e" fill-opacity="1"><g transform="translate(0.805705, 401.676311)"><g><path d="M 272.8125 -292.78125 L 273.65625 -206.515625 L 260.90625 -206.515625 C 259.207031 -230.316406 252.832031 -247.953125 241.78125 -259.421875 C 230.738281 -270.898438 211.335938 -277.347656 183.578125 -278.765625 L 164.03125 -279.609375 L 164.03125 -13.171875 L 203.96875 -13.171875 L 203.96875 0 L 85.84375 0 L 85.84375 -13.171875 L 125.359375 -13.171875 L 125.359375 -279.609375 L 106.234375 -278.765625 C 78.753906 -277.628906 59.5625 -271.609375 48.65625 -260.703125 C 37.75 -249.796875 31.019531 -231.734375 28.46875 -206.515625 L 16.140625 -206.515625 L 17 -292.78125 Z M 272.8125 -292.78125 "/></g></g></g><g fill="#1a1a2e" fill-opacity="1"><g transform="translate(284.637592, 401.676311)"><g><path d="M 142.359375 -13.171875 L 142.359375 0 L 20.828125 0 L 20.828125 -13.171875 L 60.765625 -13.171875 L 60.765625 -279.609375 L 20.828125 -279.609375 L 20.828125 -292.78125 L 142.359375 -292.78125 L 142.359375 -279.609375 L 102.828125 -279.609375 L 102.828125 -13.171875 Z M 142.359375 -13.171875 "/></g></g></g><g fill="#1a1a2e" fill-opacity="1"><g transform="translate(446.098847, 401.676311)"><g><path d="M 302.5625 -291.9375 L 302.5625 -279.1875 C 287.820312 -279.46875 277.765625 -277.765625 272.390625 -274.078125 C 264.453125 -268.984375 256.519531 -255.390625 248.59375 -233.296875 L 156.375 8.921875 L 139.375 8.921875 L 39.515625 -279.1875 L 7.65625 -279.1875 L 7.65625 -291.9375 L 117.703125 -291.9375 L 117.703125 -279.1875 L 83.71875 -279.1875 L 161.90625 -54.8125 L 231.59375 -233.296875 C 236.6875 -246.609375 239.234375 -256.238281 239.234375 -262.1875 C 239.234375 -268.132812 238.382812 -272.382812 236.6875 -274.9375 C 235.550781 -277.769531 226.628906 -279.1875 209.921875 -279.1875 L 209.921875 -291.9375 Z M 302.5625 -291.9375 "/></g></g></g><g fill="#1a1a2e" fill-opacity="1"><g transform="translate(751.600549, 401.676311)"><g><path d="M 308.078125 -13.171875 L 308.078125 0 L 197.59375 0 L 197.59375 -13.171875 L 231.59375 -13.171875 L 202.6875 -96.890625 L 100.28125 -96.890625 L 84.140625 -58.640625 C 79.035156 -45.609375 76.484375 -36.046875 76.484375 -29.953125 C 76.484375 -23.867188 77.332031 -19.550781 79.03125 -17 C 80.738281 -14.445312 89.664062 -13.171875 105.8125 -13.171875 L 105.8125 0 L 13.171875 0 L 13.171875 -13.171875 C 27.898438 -12.890625 38.59375 -14.800781 45.25 -18.90625 C 51.90625 -23.019531 59.203125 -36.265625 67.140625 -58.640625 L 159.34375 -300.859375 L 176.34375 -300.859375 L 276.640625 -13.171875 Z M 106.234375 -113.03125 L 196.75 -113.03125 L 154.671875 -237.546875 Z M 106.234375 -113.03125 "/></g></g></g><g fill="#1a1a2e" fill-opacity="1"><g transform="translate(1069.424221, 401.676311)"><g><path d="M 155.53125 -8.921875 C 182.726562 -8.921875 202.984375 -21.597656 216.296875 -46.953125 C 229.609375 -72.304688 236.265625 -105.804688 236.265625 -147.453125 C 236.265625 -189.097656 230.175781 -221.957031 218 -246.03125 C 204.394531 -273.507812 182.929688 -287.25 153.609375 -287.25 C 124.296875 -287.25 102.835938 -274.078125 89.234375 -247.734375 C 77.898438 -225.359375 72.234375 -191.929688 72.234375 -147.453125 C 72.234375 -55.097656 100 -8.921875 155.53125 -8.921875 Z M 305.109375 35.6875 L 305.109375 45.890625 C 300.003906 50.421875 296.460938 53.394531 294.484375 54.8125 C 284.285156 61.332031 274.296875 64.734375 264.515625 65.015625 C 254.742188 65.296875 244.050781 61.894531 232.4375 54.8125 L 192.078125 24.21875 C 175.078125 12.320312 160.0625 5.945312 147.03125 5.09375 C 112.1875 1.976562 82.9375 -14.304688 59.28125 -43.765625 C 35.625 -73.234375 23.9375 -107.796875 24.21875 -147.453125 C 24.789062 -193.347656 37.679688 -230.457031 62.890625 -258.78125 C 86.679688 -286.257812 117.769531 -300 156.15625 -300 C 194.550781 -300 225.21875 -286.117188 248.15625 -258.359375 C 271.101562 -230.597656 282.578125 -192.640625 282.578125 -144.484375 C 282.578125 -110.484375 274.21875 -80.453125 257.5 -54.390625 C 240.789062 -28.328125 218.414062 -10.335938 190.375 -0.421875 C 213.03125 -0.421875 231.796875 6.515625 246.671875 20.390625 C 261.546875 34.273438 274.789062 41.21875 286.40625 41.21875 C 291.507812 41.21875 297.742188 39.375 305.109375 35.6875 Z M 305.109375 35.6875 "/></g></g></g></g></g></svg>